<svg width="1306" height="83" viewBox="0 0 1306 83" fill="none" xmlns="http://www.w3.org/2000/svg">
<g clip-path="url(#clip0_2372_15931)">
<g clip-path="url(#clip1_2372_15931)">
<path d="M1503.75 14.464C1523.97 26.0122 1544.32 38.433 1544.32 41.6674L1544.32 47.7197C1544.32 52.259 -1672.66 47.7203 -1672.66 47.7203L-1672.66 41.668L-1632.45 17.0806C-1607.76 1.98758 -1576.71 1.98759 -1552.02 17.0804C-1527.34 32.1732 -1496.28 32.1732 -1471.6 17.0803C-1446.92 1.9875 -1415.86 1.98747 -1391.17 17.0803C-1366.49 32.1731 -1335.43 32.1731 -1310.75 17.0803C-1286.07 1.98749 -1255.01 1.98743 -1230.33 17.0803C-1205.64 32.1731 -1174.58 32.1731 -1149.9 17.0803C-1125.22 1.98743 -1094.16 1.98747 -1069.48 17.0803C-1044.79 32.173 -1013.74 32.1731 -989.052 17.0802C-964.368 1.98739 -933.312 1.98744 -908.628 17.0802C-883.944 32.173 -852.887 32.173 -828.203 17.0802C-803.519 1.98739 -772.462 1.98736 -747.779 17.0802C-723.095 32.173 -692.038 32.173 -667.354 17.0802C-642.67 1.98739 -611.614 1.98732 -586.93 17.0802C-562.246 32.173 -531.189 32.173 -506.505 17.0801C-481.821 1.9873 -450.765 1.9873 -426.081 17.0801C-401.397 32.173 -370.34 32.173 -345.656 17.0801C-320.973 1.98728 -289.916 1.98729 -265.232 17.0801C-240.548 32.1729 -209.491 32.1729 -184.807 17.0801C-160.124 1.98725 -129.067 1.98726 -104.383 17.0801C-79.699 32.1729 -48.642 32.1728 -23.958 17.08C0.725832 1.98728 31.7827 1.9872 56.4666 17.08C81.1504 32.1729 112.207 32.1729 136.891 17.08C161.575 1.98719 192.632 1.98719 217.316 17.08C241.999 32.1728 273.056 32.1728 297.74 17.08C322.424 1.98716 353.481 1.98716 378.165 17.08C402.848 32.1728 433.905 32.1728 458.589 17.08C483.273 1.98714 514.33 1.98715 539.013 17.08C563.697 32.1728 594.754 32.1728 619.438 17.08C644.122 1.98711 675.179 1.98711 699.862 17.0799C724.546 32.1728 755.603 32.1727 780.287 17.0799C804.971 1.9871 836.028 1.98708 860.711 17.0799C885.395 32.1727 916.452 32.1727 941.136 17.0799C965.82 1.98705 996.876 1.98705 1021.56 17.0799C1046.24 32.1727 1077.3 32.1727 1101.98 17.0799C1126.67 1.98703 1157.73 1.98701 1182.41 17.0798C1207.09 32.1727 1238.15 32.1727 1262.83 17.0798C1287.52 1.987 1318.57 1.98699 1343.26 17.0798C1367.94 32.1726 1399 32.1726 1423.68 17.0798L1425.07 16.234C1449.13 1.52019 1479.26 0.477994 1503.75 14.464Z" fill="#F9F9F9"/>
</g>
<rect x="-24" y="42" width="1329" height="41" fill="#F9F9F9"/>
</g>
<defs>
<clipPath id="clip0_2372_15931">
<rect width="1306" height="83.0001" fill="white" transform="translate(1306 83) rotate(180)"/>
</clipPath>
<clipPath id="clip1_2372_15931">
<rect width="1306" height="57.9998" fill="white" transform="matrix(-1 1.74846e-07 1.74846e-07 1 1306 -8)"/>
</clipPath>
</defs>
</svg>
